<svg id="visual"
    viewBox="0 0 400 600"
    width="400" height="600"
    xmlns="http://www.w3.org/2000/svg" xmlns:xlink="http://www.w3.org/1999/xlink" version="1.1">
    <path d="M0 200L13.3 195.2C26.7 190.3 53.3 180.7 80 177.5C106.7 174.3 133.3 177.7 160 190.2C186.7 202.7 213.3 224.3 240 231.5C266.7 238.7 293.3 231.3 320 218.3C346.7 205.3 373.3 186.7 386.7 177.3L400 168L400 0L386.7 0C373.3 0 346.7 0 320 0C293.3 0 266.7 0 240 0C213.3 0 186.7 0 160 0C133.3 0 106.7 0 80 0C53.3 0 26.7 0 13.3 0L0 0Z" fill="#0066FF" stroke-linecap="round" stroke-linejoin="miter">

    </path>
</svg>