<svg id="visual" viewBox="0 0 400 600" width="400" height="600" xmlns="http://www.w3.org/2000/svg" xmlns:xlink="http://www.w3.org/1999/xlink" version="1.1"><path d="M0 398L13.3 402.8C26.7 407.7 53.3 417.3 80 420.5C106.7 423.7 133.3 420.3 160 407.8C186.7 395.3 213.3 373.7 240 366.5C266.7 359.3 293.3 366.7 320 379.7C346.7 392.7 373.3 411.3 386.7 420.7L400 430L400 601L386.7 601C373.3 601 346.7 601 320 601C293.3 601 266.7 601 240 601C213.3 601 186.7 601 160 601C133.3 601 106.7 601 80 601C53.3 601 26.7 601 13.3 601L0 601Z" fill="#0066FF" stroke-linecap="round" stroke-linejoin="miter"></path></svg>